<svg width="39" height="39" viewBox="0 0 39 39" fill="none" xmlns="http://www.w3.org/2000/svg">
<path d="M19.3998 38.7995C30.1139 38.7995 38.7995 30.114 38.7995 19.3998C38.7995 8.68567 30.1139 0 19.3998 0C8.68553 0 0 8.68567 0 19.3998C0 30.114 8.68553 38.7995 19.3998 38.7995Z" fill="#F6D949"/>
<path fill-rule="evenodd" clip-rule="evenodd" d="M26.179 37.5826C24.0689 38.3696 21.7849 38.7998 19.4003 38.7998C18.0169 38.7998 16.6673 38.655 15.366 38.3797L15.3608 18.7532C10.5086 19.1598 10.6572 14.596 10.6572 14.596C11.8452 13.6679 12.848 12.5698 13.6655 11.3018C14.8182 9.51402 17.9354 8.9182 17.9354 8.9182L17.1928 6.63544C18.778 6.27997 19.8626 8.9182 19.8626 8.9182V5.875C20.7364 6.16585 21.2977 6.49736 21.5463 6.86952C21.6371 7.00518 21.718 7.14897 21.7903 7.29732C22.3343 8.41337 22.3871 9.77935 22.3871 9.77935C23.7468 10.6679 25.2486 12.0996 25.6106 15.0522C25.6106 16.6219 26.0297 32.1128 26.179 37.5826Z" fill="white"/>
</svg>
