<svg width="34" height="34" viewBox="0 0 34 34" fill="none" xmlns="http://www.w3.org/2000/svg">
<path d="M10.2211 14.0561L16.7207 7.55644L23.2203 14.0561L26.9986 10.2778L16.7207 -1.52588e-05L6.44287 10.2778L10.2211 14.0561Z" fill="#F3BA2F"/>
<path d="M3.77385 12.9522L0 16.7261L3.77385 20.4999L7.5477 16.7261L3.77385 12.9522Z" fill="#F3BA2F"/>
<path d="M10.2211 19.3931L16.7207 25.8927L23.2203 19.3931L26.9986 23.1713L16.7207 33.4492L6.44287 23.1713L10.2211 19.3931Z" fill="#F3BA2F"/>
<path d="M29.665 12.9527L25.8911 16.7265L29.665 20.5004L33.4388 16.7265L29.665 12.9527Z" fill="#F3BA2F"/>
<path d="M20.5518 16.7246L16.7207 12.8935L13.8937 15.7206L13.5502 16.0376L12.8896 16.7246L16.7207 20.5557L20.5518 16.7246Z" fill="#F3BA2F"/>
</svg>
