<svg width="26" height="28" viewBox="0 0 26 28" fill="currentColor" xmlns="http://www.w3.org/2000/svg">
<path d="M25.3499 19.7912C25.3499 16.6799 23.4469 14.1794 20.382 13.1677C22.7057 12.1561 24.3283 10.0564 24.3283 7.346C24.3283 3.1085 20.5823 0.149902 15.2939 0.149902H0.149902V3.7575C2.5337 3.7575 4.4567 5.5899 4.4567 7.8613C4.4567 10.1328 2.5337 11.9652 0.149902 11.9652V15.2101C2.5337 15.2101 4.4567 17.0425 4.4567 19.314C4.4567 21.5854 2.5337 23.4178 0.149902 23.4178V27.3499H15.955C21.3836 27.3499 25.3299 24.2768 25.3299 19.8293M8.2828 4.0629H14.5127C17.0567 4.0629 18.8796 5.6472 18.8796 7.8613C18.8796 10.0755 17.0567 11.6216 14.5127 11.6216H8.2828V4.0629ZM8.2828 23.3987V15.191H15.0736C17.878 15.191 19.7811 16.8517 19.7811 19.2758C19.7811 21.6999 17.878 23.3987 15.0736 23.3987H8.2828Z"/>
</svg>
