<svg width="15" height="12" viewBox="0 0 15 12" fill="currentColor" xmlns="http://www.w3.org/2000/svg">
<path d="M14.8538 5.1938C14.9489 5.36408 15 5.54113 15 5.72197C15 7.20972 11.6421 8.41563 7.5 8.41563C3.35789 8.41563 0 7.20972 0 5.72197C0 5.54113 0.0519718 5.36408 0.14662 5.1938C0.830282 6.42845 3.86197 7.3593 7.5 7.3593C11.1385 7.3593 14.1706 6.42845 14.8538 5.1938ZM7.5 10.2465C3.86197 10.2465 0.830282 9.31563 0.14662 8.08099C0.0519718 8.25169 0 8.42831 0 8.60916C0 10.0969 3.35789 11.3028 7.5 11.3028C11.643 11.3028 15 10.0969 15 8.60916C15 8.42831 14.9489 8.25169 14.8538 8.08099C14.1706 9.31563 11.1385 10.2465 7.5 10.2465ZM7.5 0C3.35789 0 0 1.20592 0 2.69366C0 4.18141 3.35789 5.38732 7.5 5.38732C11.643 5.38732 15 4.18141 15 2.69366C15 1.20592 11.6421 0 7.5 0Z" fill="currentColor"/>
</svg>
