<svg xmlns="http://www.w3.org/2000/svg" width="128" height="85" fill="currentColor" viewBox="0 0 128 85">
  <g class="Group 8899">
    <path d="M36 43c11.606 0 21-9.394 21-21S47.606 1 36 1s-21 9.394-21 21 9.394 21 21 21Zm14.4 6h-1.556c-3.9 1.875-8.232 3-12.844 3-4.613 0-8.925-1.125-12.844-3H21.6C9.675 49 0 58.675 0 70.6V76c0 4.969 4.031 9 9 9h54c4.969 0 9-4.031 9-9v-5.4C72 58.675 62.325 49 50.4 49ZM90 43c9.938 0 18-8.063 18-18 0-9.938-8.063-18-18-18-9.938 0-18 8.063-18 18 0 9.938 8.063 18 18 18Zm9 6h-.713c-2.606.9-5.362 1.5-8.287 1.5-2.925 0-5.681-.6-8.287-1.5H81c-3.825 0-7.35 1.106-10.444 2.888C75.131 56.818 78 63.362 78 70.6v7.2c0 .413-.094.806-.112 1.2H111c4.969 0 9-4.031 9-9 0-11.606-9.394-21-21-21Z" class="Vector"/>
    <path stroke="currentColor" stroke-width="1.143" d="M127 10.143h-6.857V17h-2.286v-6.857H111V7.857h6.857V1h2.286v6.857H127v2.286Z" class="Vector"/>
  </g>
</svg>
