<svg width="22" height="28" viewBox="0 0 22 28" fill="none" xmlns="http://www.w3.org/2000/svg">
<path d="M17.5245 0.258648C16.4116 0.234294 15.0885 0.478135 13.5898 0.979962C13.365 1.06 13.1872 1.18651 13.0271 1.34648C11.5028 2.79941 10.0199 4.33976 8.61811 5.93215L8.51059 6.05311C8.48077 6.08726 8.47714 6.13829 8.49906 6.1778C8.5218 6.21782 8.56616 6.23854 8.61053 6.22853L8.76797 6.19539C11.0269 5.70508 13.3077 5.32876 15.5447 5.08017C15.6919 5.0637 15.8439 5.11493 15.9537 5.21669C16.0636 5.31946 16.1275 5.46599 16.1246 5.61828C16.0876 7.87256 16.1668 10.138 16.3646 12.3525L16.3781 12.4968C16.383 12.541 16.413 12.5767 16.4569 12.5884C16.4647 12.5904 16.472 12.5924 16.4818 12.5924C16.5149 12.5929 16.5481 12.5771 16.5682 12.5476L16.6508 12.4286C17.9112 10.6027 19.2833 8.82761 20.7257 7.14892C20.8872 6.96218 20.9297 6.84465 20.96 6.67519C21.4141 3.72425 20.7132 1.54192 20.0863 0.989865C19.5417 0.510573 18.7516 0.285326 17.5245 0.258648ZM14.0641 6.23632L13.9258 6.25582C11.7676 6.55756 9.58275 6.97572 7.43144 7.49775C7.21812 7.55828 7.0812 7.69895 7.05118 7.73169C5.44111 9.68949 3.91613 11.75 2.51736 13.8615C2.44753 13.9683 2.44056 14.2241 2.44056 14.2241C2.44056 14.2241 2.79151 16.9747 3.30476 19.0009C2.03301 22.7141 0.898594 27.6068 0.898594 27.6068C0.889702 27.6386 0.895664 27.6717 0.913955 27.6985C0.933155 27.7252 0.96347 27.7422 0.996514 27.7432H1.72046C1.76633 27.744 1.80625 27.7158 1.82222 27.6731L1.87224 27.5347C2.61093 25.4887 3.4531 23.4688 4.3839 21.5004C4.60066 21.0418 5.05792 20.1161 5.05792 20.1161C5.1331 19.9658 5.48396 19.2826 5.56298 19.1295L5.57642 19.1023C7.92034 14.613 10.7777 10.3786 14.0661 6.51704L14.1563 6.41184C14.1842 6.37829 14.1899 6.32969 14.1698 6.29088C14.1482 6.25188 14.106 6.23056 14.0641 6.23632ZM15.0588 7.08253C15.0182 7.06707 14.9714 7.07748 14.9436 7.11173L14.8534 7.21895C11.019 11.7212 7.79665 16.7185 5.27488 22.0717L5.21536 22.1965C5.19616 22.236 5.20354 22.2836 5.23264 22.3154C5.25265 22.3363 5.27892 22.3482 5.30752 22.3486C5.32035 22.3491 5.33672 22.3465 5.34986 22.3406L5.47658 22.2859C7.63011 21.3801 9.83013 20.5952 12.0152 19.9541C12.146 19.9156 12.2549 19.8234 12.3166 19.7007C13.2746 17.8051 15.4986 14.1362 15.4986 14.1362C15.5557 14.0535 15.5427 13.9296 15.5427 13.9296C15.5427 13.9296 15.1521 9.54114 15.1279 7.32011L15.126 7.17974C15.124 7.13578 15.0987 7.09728 15.0588 7.08253ZM9.37277 21.8201L9.19421 21.8826C8.03655 22.2731 6.32381 22.8734 4.7872 23.5905C4.70484 23.6297 4.65078 23.7386 4.65078 23.7386C4.62218 23.8054 4.58752 23.8888 4.5471 23.9824L4.54124 23.9941C4.36904 24.3918 4.13026 24.9905 4.0285 25.234L3.94978 25.427C3.93745 25.4576 3.94483 25.4918 3.96898 25.5148C3.98323 25.5286 3.9996 25.5354 4.02072 25.5363C4.03153 25.5363 4.04396 25.5342 4.05538 25.5283L4.24162 25.4386C4.662 25.2356 5.19485 24.928 5.75286 24.6588L5.77206 24.6488C6.83321 24.1377 8.03079 23.5609 8.7524 23.2118C8.7524 23.2118 8.86851 23.1483 8.92712 23.0306L9.46675 21.9309C9.481 21.9022 9.47685 21.8677 9.45684 21.8432C9.43492 21.8192 9.40278 21.81 9.37277 21.8201Z" fill="#00C590"/>
</svg>
