<svg width="13" height="14" viewBox="0 0 13 14" fill="none" xmlns="http://www.w3.org/2000/svg">
<path d="M11.3251 3.28671L6.01172 0.333374L0.698386 3.28671L4.07839 5.16004C4.56505 4.65337 5.25172 4.33337 6.01172 4.33337C6.77172 4.33337 7.45839 4.65337 7.94505 5.16004L11.3251 3.28671ZM4.67839 7.00004C4.67839 6.26671 5.27839 5.66671 6.01172 5.66671C6.74505 5.66671 7.34505 6.26671 7.34505 7.00004C7.34505 7.73337 6.74505 8.33337 6.01172 8.33337C5.27839 8.33337 4.67839 7.73337 4.67839 7.00004ZM5.34505 13.2934L0.0117188 10.3334V4.42671L3.43172 6.32671C3.37172 6.54004 3.34505 6.76671 3.34505 7.00004C3.34505 8.24004 4.19172 9.28671 5.34505 9.58004V13.2934ZM6.67839 13.2934V9.58004C7.83172 9.28671 8.67839 8.24004 8.67839 7.00004C8.67839 6.76671 8.65172 6.54004 8.59172 6.32671L12.0117 4.42671V10.3334L6.67839 13.2934Z" fill="#63CCE0"/>
</svg>
