<svg width="150" height="158" viewBox="0 0 150 158" fill="none" xmlns="http://www.w3.org/2000/svg">
<path d="M117.876 100.207V110.488C117.876 117.548 112.184 123.278 105.171 123.278H36.3993V100.258H31.1438V90.0269H61.8048V92.5852C61.8075 94.6193 62.6115 96.5694 64.0406 98.0077C65.4696 99.446 67.4071 100.255 69.4279 100.258H112.794L117.876 100.207Z" fill="#D25254"/>
<path d="M77.0511 35.9746H71.9688V100.258H77.0511V35.9746Z" fill="#D25254"/>
<path d="M117.876 110.488C117.876 117.548 112.184 123.277 105.171 123.277H74.5093V110.488H117.876Z" fill="#D25254"/>
<path d="M87.214 35.9746H74.5093V51.4915H87.214V35.9746Z" fill="#E2C159"/>
<path d="M74.5102 35.9746H61.6355V51.4915H74.5102V35.9746Z" fill="#E2C159"/>
<path d="M107.627 56.436H74.5093V82.4221H107.627V56.436Z" fill="#E2C159"/>
<path d="M74.5094 56.436H41.3918V82.4221H74.5094V56.436Z" fill="#E2C159"/>
<path d="M74.5269 100.275H61.7883V110.488H74.5269V100.275Z" fill="#D25254"/>
<path d="M61.7708 100.257H49.0322V110.471H61.7708V100.257Z" fill="#D25254"/>
<path d="M87.2654 100.257H74.5269V110.471H87.2654V100.257Z" fill="#D25254"/>
<path d="M117.876 87.4692H112.793V100.258H117.876V87.4692Z" fill="#D25254"/>
</svg>
