<svg enable-background="new 0 0 680 270.53" viewBox="0 0 680 270.53" xmlns="http://www.w3.org/2000/svg" xmlns:xlink="http://www.w3.org/1999/xlink"><linearGradient id="a"><stop offset="0" stop-color="#7fc2ee"/><stop offset="1" stop-color="#47d6d2"/></linearGradient><linearGradient id="b" gradientUnits="userSpaceOnUse" x1="632.576" x2="655.0158" xlink:href="#a" y1="146.2174" y2="122.0514"/><linearGradient id="c" gradientUnits="userSpaceOnUse" x1="24.4585" x2="24.4585" xlink:href="#a" y1="217.0111" y2="210.0183"/><linearGradient id="d" gradientUnits="userSpaceOnUse" x1="36.9441" x2="36.9441" xlink:href="#a" y1="146.7064" y2="139.6968"/><linearGradient id="e" gradientUnits="userSpaceOnUse" x1="75.1377" x2="75.1377" xlink:href="#a" y1="80.654" y2="73.6433"/><linearGradient id="f" gradientUnits="userSpaceOnUse" x1="83.3864" x2="83.3864" xlink:href="#a" y1="210.4169" y2="15.4909"/><linearGradient id="g" gradientUnits="userSpaceOnUse" x1="115.3995" x2="115.3995" xlink:href="#a" y1="51.6379" y2="44.6357"/><linearGradient id="h" gradientUnits="userSpaceOnUse" x1="59.1901" x2="59.1901" xlink:href="#a" y1="171.1" y2="164.0884"/><linearGradient id="i" gradientUnits="userSpaceOnUse" x1="96.2032" x2="96.2032" xlink:href="#a" y1="100.5731" y2="93.575"/><linearGradient id="j" gradientUnits="userSpaceOnUse" x1="18.9225" x2="18.9225" xlink:href="#a" y1="255.0349" y2="219.2831"/><g fill="#323433"><path d="m418.24 103.46h-10.89v80.43h10.89v-49.32h21.1v-10.1h-21.1z"/><path d="m451.69 139.06v44.51h11.33v-41.7c0-4.25 1.88-6.97 5.57-8.09 1.64-.38 9.87-.63 21.01-.65h1.3v-10.34h-16.36c-15.16 0-22.85 5.47-22.85 16.27z"/><path d="m551.28 123.43h-45.31v10.34h46.04c4.49 0 7.75.88 9.18 2.46 1.26 1.48 1.92 3.85 2.03 7.24h-36.72c-6.44 0-11.58 1.32-15.28 3.93-3.75 2.64-5.57 6.31-5.57 11.23v10.66c0 4.68 2.11 8.38 6.26 10.98 3.83 2.39 9 3.61 15.39 3.61h26.94c6.12 0 11.02-1.4 14.55-4.17 3.59-2.8 5.33-6.37 5.33-10.91v-30.07c.01-10.15-7.67-15.3-22.84-15.3zm11.78 31.75v11.63c0 4.36-3.32 6.57-9.86 6.57h-26.48c-2.82 0-5.25-.58-7.22-1.72s-2.96-2.83-2.96-5.01v-5.94c0-5 3.37-7.54 10.02-7.54h33.22c2.17.01 3.28.68 3.28 2.01z"/><path d="m369.02 123.43h-24.86c-14.26 0-21.49 6.2-21.49 18.44v41.86h10.83v-41.48c0-6.12 4.05-9.22 12.03-9.22h22.22c7.87 0 11.87 3.1 11.87 9.22v41.48h10.74v-41.86c-.01-12.24-7.19-18.44-21.34-18.44z"/><path d="m158.53 107.31c-4.54 2.86-6.74 7.51-6.74 14.2v44.34c0 5.72 2.07 10.06 6.34 13.27 4.2 3.16 10.24 4.77 17.96 4.77h46.99v-10.34h-46.14c-5.29 0-8.91-.74-11.06-2.25-2.13-1.49-3.21-4.16-3.21-7.94v-40.82c0-2.97 1.18-5.22 3.55-6.86 2.03-1.26 5.28-1.88 9.92-1.88h47.1v-10.18h-45.87c-8.67 0-15.01 1.24-18.84 3.69z"/><path d="m604.06 123.43h-14.29l27.86 30.8-27.94 29.66h14.35l20.63-21.89 19.8 21.89h14.29z"/><path d="m301.46 126.74c-3.17-2.09-8.2-3.15-14.95-3.15h-24.46c-6.76 0-11.91 1.05-15.32 3.13-4.74 2.92-7.05 6.9-7.05 12.19v30.07c0 4.64 1.82 8.21 5.57 10.9 3.7 2.66 9.35 4.01 16.8 4.01h24.46c6.55 0 11.51-1.05 14.72-3.11 4.67-2.77 6.93-6.63 6.93-11.81v-30.07c0-5.37-2.27-9.47-6.7-12.16zm-7.54 45.17c-1.6 1.09-4 1.64-7.14 1.64h-25.24c-3.25 0-5.78-.57-7.6-1.73-2.21-1.23-3.38-3.24-3.38-5.81v-24.3c0-2.77 1.16-4.82 3.53-6.14 1.81-1.19 4.67-1.79 8.5-1.79h23.24c3.72 0 6.4.6 8.27 1.9 2.12 1.24 3.2 3.27 3.2 6.04v24.46c-.02 2.53-1.1 4.39-3.38 5.73z"/></g><path d="m635.68 150.3 31.34-33.26-21.42 7.51-16.95 17.98z" fill="url(#b)"/><path d="m26.71 210.85c-.46-.39-1.01-.68-1.65-.79-.11-.02-.21-.01-.32-.02-.64-.05-1.27.06-1.82.33-.98.48-1.73 1.39-1.93 2.54-.03.16-.03.31-.03.46-.03.63.12 1.24.4 1.78.49.92 1.37 1.62 2.48 1.82.85.15 1.67-.03 2.37-.44.3-.18.58-.39.82-.65.44-.48.76-1.07.88-1.76.13-.71.03-1.41-.25-2.03-.22-.48-.55-.9-.95-1.24z" fill="url(#c)"/><path d="m36.34 146.65c1.9.34 3.73-.94 4.06-2.84.24-1.38-.37-2.71-1.45-3.47-.41-.29-.87-.5-1.39-.59-1.43-.25-2.82.41-3.56 1.56-.24.38-.42.81-.5 1.28-.34 1.91.93 3.73 2.84 4.06z" fill="url(#d)"/><path d="m73.26 74.2c-.8.51-1.39 1.33-1.57 2.33-.34 1.9.94 3.73 2.84 4.06 1.9.34 3.72-.94 4.06-2.85.15-.85-.04-1.68-.45-2.38-.5-.85-1.35-1.5-2.4-1.68-.89-.14-1.77.07-2.48.52z" fill="url(#e)"/><path d="m79.22 71.13c2.3 1.56 3.6 4.37 3.09 7.28-.7 3.96-4.48 6.61-8.44 5.91s-6.61-4.48-5.91-8.44c.57-3.24 3.23-5.57 6.34-5.94.79-2.83 1.7-5.49 2.67-8.05-9.36 6.42-26.31 20.26-35.38 41.15-4.93 11.36-4.28 25.07-3.29 33.01 3.9.75 6.5 4.49 5.81 8.41-.7 3.96-4.48 6.61-8.44 5.91s-6.61-4.48-5.91-8.44c.39-2.2 1.75-3.97 3.55-5.01-.53-4.12-.96-9.75-.64-15.9-4.25 5.23-10.7 15.05-15.37 30.6-6.21 20.69-1.69 43.25 5.11 54.91.61-.18 1.24-.3 1.9-.31 13.9-40.74 39.9-100.72 84.76-154.53-.8-1.42-1.16-3.1-.86-4.82.7-3.96 4.48-6.61 8.44-5.91s6.61 4.48 5.91 8.44-4.48 6.61-8.44 5.91c-.42-.07-.83-.2-1.22-.34-44.4 53.27-70.13 112.66-83.86 152.93 0 0 .01.01.01.01.09.07.15.16.23.24.71.64 1.32 1.39 1.73 2.26 16.64-2.26 28.68-10.98 39.41-28.22 4.08-6.56 7.39-14.99 9.46-20.92-3.75 2.41-8.23 4.73-13.46 6.65-.01.31-.01.61-.07.92-.7 3.96-4.48 6.61-8.44 5.91s-6.61-4.48-5.91-8.44 4.48-6.61 8.44-5.91c1.84.33 3.38 1.34 4.45 2.71 16.79-6.26 25.19-17.29 26.22-18.72 3.12-6.94 6.37-16.73 9.81-27.08 3.33-10.02 6.99-21.02 11.14-31.33l-9.14 8.34c.5 1.23.69 2.6.44 4-.7 3.96-4.48 6.61-8.44 5.91s-6.61-4.48-5.91-8.44 4.48-6.61 8.44-5.91c.74.13 1.42.4 2.06.73l17.66-16.12c2.79-2.54 4.97-5.78 6.32-9.34 9.55-25.27 22.48-42.22 28.9-49.67-15.61.51-59.41 6.43-73.17 55.65z" fill="url(#f)"/><path d="m115.75 51.61c1.52-.16 2.82-1.29 3.1-2.86.34-1.9-.94-3.73-2.84-4.06-1.9-.34-3.73.94-4.06 2.84-.05.28-.05.55-.04.82.1 1.58 1.26 2.95 2.88 3.24.32.06.65.06.96.02z" fill="url(#g)"/><path d="m59.8 164.14c-1.9-.34-3.73.94-4.06 2.84-.34 1.9.94 3.73 2.84 4.06 1.49.26 2.92-.47 3.64-1.72.2-.34.35-.71.42-1.12.27-1.54-.52-3.02-1.84-3.7-.31-.16-.64-.29-1-.36z" fill="url(#h)"/><path d="m96.82 93.61c-.18-.03-.35-.03-.52-.04-1.7-.04-3.23 1.15-3.54 2.88-.34 1.9.94 3.73 2.84 4.06 1.9.34 3.72-.94 4.06-2.85.02-.13.02-.25.03-.37.12-1.75-1.09-3.36-2.87-3.68z" fill="url(#i)"/><path d="m24.84 220.74c-.54.04-1.09.05-1.66-.05-1.19-.21-2.24-.71-3.13-1.4-3.03 9.73-5.56 19.49-7.07 25.51l2.75 10.25c1.04-4.77 4.09-18.09 9.13-34.27z" fill="url(#j)"/></svg>