<?xml version="1.0" standalone="no"?>
<!DOCTYPE svg PUBLIC "-//W3C//DTD SVG 20010904//EN"
 "http://www.w3.org/TR/2001/REC-SVG-20010904/DTD/svg10.dtd">
<svg version="1.0" xmlns="http://www.w3.org/2000/svg"
 width="748.000000pt" height="748.000000pt" viewBox="0 0 748.000000 748.000000"
 preserveAspectRatio="xMidYMid meet">
<metadata>
Created by potrace 1.14, written by Peter Selinger 2001-2017
</metadata>
<g transform="translate(0.000000,748.000000) scale(0.100000,-0.100000)"
fill="#000000" stroke="none">
<path d="M5230 6173 c-452 -54 -840 -247 -1092 -545 -120 -141 -249 -375 -303
-550 l-27 -88 21 -17 c12 -10 28 -36 35 -57 24 -70 0 -140 -62 -180 -51 -33
-102 -38 -150 -15 -60 30 -87 73 -87 141 0 64 19 98 76 135 53 35 64 49 82
106 21 67 21 70 -2 58 -29 -16 -198 -155 -265 -219 -262 -248 -457 -563 -511
-821 -27 -132 -36 -330 -21 -453 7 -53 11 -60 49 -85 77 -52 101 -130 64 -205
-29 -56 -77 -88 -131 -87 -60 1 -83 10 -121 48 -58 56 -59 138 -5 207 l30 37
-7 131 c-3 72 -7 144 -7 159 l-1 28 -22 -27 c-85 -107 -207 -354 -273 -554
-55 -165 -71 -255 -77 -430 -10 -273 35 -527 126 -724 33 -71 47 -85 66 -65 8
8 51 113 95 234 173 466 313 789 530 1220 312 619 690 1214 1075 1695 50 64
97 125 103 137 6 11 11 48 9 80 -2 51 2 66 26 102 64 96 189 95 261 -2 28 -38
28 -126 -1 -165 -36 -48 -81 -72 -138 -72 l-52 0 -122 -152 c-541 -678 -1028
-1521 -1419 -2458 -42 -100 -155 -397 -216 -564 l-36 -100 22 -23 c26 -28 41
-28 140 -3 211 53 398 172 558 355 73 83 180 249 240 371 44 89 122 276 117
280 -1 1 -60 -26 -131 -61 -115 -56 -132 -67 -149 -101 -27 -55 -46 -74 -92
-95 -138 -62 -268 89 -193 222 24 42 85 79 131 79 30 0 79 -20 113 -45 20 -15
28 -12 132 40 181 90 396 267 448 366 23 45 105 273 234 654 62 182 132 381
156 443 23 62 39 112 35 110 -5 -2 -45 -37 -89 -78 -79 -72 -81 -76 -76 -111
8 -48 -23 -119 -66 -149 -49 -35 -125 -39 -169 -8 -57 38 -75 72 -75 133 0 61
19 95 75 133 27 19 45 23 96 21 58 -2 67 1 95 27 18 16 37 34 43 39 345 304
375 341 481 595 63 151 158 338 252 495 76 127 125 198 295 420 21 28 35 27
-123 8z"/>
<path d="M4543 5542 c-27 -21 -38 -71 -21 -93 39 -48 96 -42 119 13 15 37 0
74 -37 88 -33 13 -35 13 -61 -8z"/>
<path d="M3667 4912 c-34 -38 -16 -101 33 -117 27 -9 77 23 85 54 15 59 -77
108 -118 63z"/>
<path d="M4131 4493 c-11 -10 -24 -32 -27 -48 -4 -25 0 -36 22 -58 30 -31 34
-31 67 -16 25 11 47 47 47 75 0 21 -46 64 -68 64 -11 0 -29 -8 -41 -17z"/>
<path d="M2875 3513 c-44 -11 -62 -85 -27 -115 35 -32 60 -31 92 1 17 16 30
37 30 46 0 18 -53 76 -67 74 -4 -1 -17 -4 -28 -6z"/>
<path d="M3331 2973 c-61 -51 -12 -138 64 -113 59 19 66 99 10 120 -37 14 -50
13 -74 -7z"/>
<path d="M2593 1995 c-29 -20 -37 -59 -19 -94 20 -37 61 -48 88 -24 50 46 47
96 -7 119 -42 17 -36 17 -62 -1z"/>
<path d="M2472 1583 c-88 -313 -85 -298 -63 -399 18 -81 26 -103 35 -93 2 2
20 69 41 149 20 80 61 231 91 337 30 105 54 194 54 196 0 3 -12 7 -27 10 -16
3 -37 8 -49 12 -20 6 -25 -6 -82 -212z"/>
</g>
</svg>
