<svg width="14" height="14" viewBox="0 0 14 14" fill="none" xmlns="http://www.w3.org/2000/svg">
<path fill-rule="evenodd" clip-rule="evenodd" d="M13.3424 0.875026C12.8592 0.391758 12.0757 0.391712 11.5924 0.874923L7.21667 5.25L2.84213 0.875078C2.35889 0.391799 1.57537 0.391798 1.09213 0.875077C0.608954 1.3583 0.608954 2.1417 1.09213 2.62492L5.46682 7L1.09213 11.3751C0.608955 11.8583 0.608954 12.6417 1.09213 13.1249C1.57537 13.6082 2.35889 13.6082 2.84213 13.1249L7.21667 8.75L11.5924 13.1251C12.0757 13.6083 12.8592 13.6082 13.3424 13.125C13.8256 12.6417 13.8256 11.8583 13.3424 11.375L8.96775 7L13.3424 2.62497C13.8256 2.14173 13.8256 1.35827 13.3424 0.875026Z" fill="#63CCE0"/>
</svg>
